<?xml version="1.0" encoding="UTF-8" standalone="no"?>
<!DOCTYPE svg PUBLIC "-//W3C//DTD SVG 1.1//EN" "http://www.w3.org/Graphics/SVG/1.1/DTD/svg11.dtd">
<svg xmlns="http://www.w3.org/2000/svg" version="1.1" viewBox="0 0 512 512">
<g stroke-width="2.00" fill="none" stroke-linecap="butt">
<path stroke="#cdacda" vector-effect="non-scaling-stroke" d="
  M 148.78 230.19
  L 99.70 145.56
  A 1.14 1.12 74.5 0 0 98.73 145.00
  L 43.71 145.00
  A 0.58 0.58 75.3 0 0 43.21 145.86
  Q 82.48 214.61 121.94 283.31
  Q 123.79 286.54 123.61 290.62
  Q 123.50 293.28 123.50 293.38
  Q 123.50 334.83 123.50 377.22
  A 0.85 0.84 90.0 0 0 124.34 378.07
  L 174.78 378.19
  A 0.73 0.72 -90.0 0 0 175.50 377.46
  Q 175.50 332.75 175.61 288.75
  Q 175.62 286.32 177.50 283.00
  Q 209.35 226.86 241.81 171.06
  Q 245.46 164.80 255.95 145.26
  A 0.30 0.30 13.7 0 0 255.68 144.82
  L 200.65 144.99
  A 1.75 1.74 14.9 0 0 199.16 145.85
  L 150.18 230.20
  A 0.81 0.80 45.2 0 1 148.78 230.19"
/>
<path stroke="#cdacda" vector-effect="non-scaling-stroke" d="
  M 295.59 356.67
  Q 316.32 375.50 342.81 379.44
  Q 364.58 382.67 383.50 378.50
  Q 419.04 370.67 440.39 339.87
  Q 450.65 325.07 453.86 307.32
  Q 456.09 295.02 455.25 281.50
  Q 453.60 254.77 437.99 233.74
  Q 413.91 201.29 373.48 196.41
  Q 360.28 194.82 347.75 196.25
  Q 314.53 200.04 291.25 224.00
  Q 268.30 247.63 266.00 281.50
  Q 262.91 326.97 295.59 356.67"
/>
<path stroke="#cdacda" vector-effect="non-scaling-stroke" d="
  M 332.97 328.02
  Q 342.97 336.70 355.75 337.75
  Q 379.44 339.70 393.32 323.21
  Q 399.18 316.24 401.92 307.76
  Q 404.54 299.68 404.75 290.00
  Q 404.98 279.49 402.43 270.57
  Q 399.73 261.14 393.49 253.59
  Q 381.60 239.21 362.53 238.54
  Q 352.23 238.18 343.09 242.23
  Q 327.19 249.27 320.45 265.75
  Q 317.95 271.86 317.05 279.00
  Q 316.24 285.46 316.50 292.75
  Q 317.27 314.39 332.97 328.02"
/>
</g>
<path fill="#9a59b5" d="
  M 0.00 0.00
  L 512.00 0.00
  L 512.00 512.00
  L 0.00 512.00
  L 0.00 0.00
  Z
  M 148.78 230.19
  L 99.70 145.56
  A 1.14 1.12 74.5 0 0 98.73 145.00
  L 43.71 145.00
  A 0.58 0.58 75.3 0 0 43.21 145.86
  Q 82.48 214.61 121.94 283.31
  Q 123.79 286.54 123.61 290.62
  Q 123.50 293.28 123.50 293.38
  Q 123.50 334.83 123.50 377.22
  A 0.85 0.84 90.0 0 0 124.34 378.07
  L 174.78 378.19
  A 0.73 0.72 -90.0 0 0 175.50 377.46
  Q 175.50 332.75 175.61 288.75
  Q 175.62 286.32 177.50 283.00
  Q 209.35 226.86 241.81 171.06
  Q 245.46 164.80 255.95 145.26
  A 0.30 0.30 13.7 0 0 255.68 144.82
  L 200.65 144.99
  A 1.75 1.74 14.9 0 0 199.16 145.85
  L 150.18 230.20
  A 0.81 0.80 45.2 0 1 148.78 230.19
  Z
  M 295.59 356.67
  Q 316.32 375.50 342.81 379.44
  Q 364.58 382.67 383.50 378.50
  Q 419.04 370.67 440.39 339.87
  Q 450.65 325.07 453.86 307.32
  Q 456.09 295.02 455.25 281.50
  Q 453.60 254.77 437.99 233.74
  Q 413.91 201.29 373.48 196.41
  Q 360.28 194.82 347.75 196.25
  Q 314.53 200.04 291.25 224.00
  Q 268.30 247.63 266.00 281.50
  Q 262.91 326.97 295.59 356.67
  Z"
/>
<path fill="#ffffff" d="
  M 148.78 230.19
  A 0.81 0.80 45.2 0 0 150.18 230.20
  L 199.16 145.85
  A 1.75 1.74 14.9 0 1 200.65 144.99
  L 255.68 144.82
  A 0.30 0.30 13.7 0 1 255.95 145.26
  Q 245.46 164.80 241.81 171.06
  Q 209.35 226.86 177.50 283.00
  Q 175.62 286.32 175.61 288.75
  Q 175.50 332.75 175.50 377.46
  A 0.73 0.72 -90.0 0 1 174.78 378.19
  L 124.34 378.07
  A 0.85 0.84 90.0 0 1 123.50 377.22
  Q 123.50 334.83 123.50 293.38
  Q 123.50 293.28 123.61 290.62
  Q 123.79 286.54 121.94 283.31
  Q 82.48 214.61 43.21 145.86
  A 0.58 0.58 75.3 0 1 43.71 145.00
  L 98.73 145.00
  A 1.14 1.12 74.5 0 1 99.70 145.56
  L 148.78 230.19
  Z"
/>
<path fill="#ffffff" d="
  M 295.59 356.67
  Q 262.91 326.97 266.00 281.50
  Q 268.30 247.63 291.25 224.00
  Q 314.53 200.04 347.75 196.25
  Q 360.28 194.82 373.48 196.41
  Q 413.91 201.29 437.99 233.74
  Q 453.60 254.77 455.25 281.50
  Q 456.09 295.02 453.86 307.32
  Q 450.65 325.07 440.39 339.87
  Q 419.04 370.67 383.50 378.50
  Q 364.58 382.67 342.81 379.44
  Q 316.32 375.50 295.59 356.67
  Z
  M 332.97 328.02
  Q 342.97 336.70 355.75 337.75
  Q 379.44 339.70 393.32 323.21
  Q 399.18 316.24 401.92 307.76
  Q 404.54 299.68 404.75 290.00
  Q 404.98 279.49 402.43 270.57
  Q 399.73 261.14 393.49 253.59
  Q 381.60 239.21 362.53 238.54
  Q 352.23 238.18 343.09 242.23
  Q 327.19 249.27 320.45 265.75
  Q 317.95 271.86 317.05 279.00
  Q 316.24 285.46 316.50 292.75
  Q 317.27 314.39 332.97 328.02
  Z"
/>
<path fill="#9a59b5" d="
  M 332.97 328.02
  Q 317.27 314.39 316.50 292.75
  Q 316.24 285.46 317.05 279.00
  Q 317.95 271.86 320.45 265.75
  Q 327.19 249.27 343.09 242.23
  Q 352.23 238.18 362.53 238.54
  Q 381.60 239.21 393.49 253.59
  Q 399.73 261.14 402.43 270.57
  Q 404.98 279.49 404.75 290.00
  Q 404.54 299.68 401.92 307.76
  Q 399.18 316.24 393.32 323.21
  Q 379.44 339.70 355.75 337.75
  Q 342.97 336.70 332.97 328.02
  Z"
/>
</svg>
